HIERARCHY
ROOT pelvis
{
  OFFSET 0 100 0
  CHANNELS 6 Xposition Yposition Zposition Zrotation Xrotation Yrotation
  JOINT pelvis_right_femur
  {
    OFFSET -10.78128 -3.44521 -0.5502486
    CHANNELS 3 Zrotation Xrotation Yrotation
    JOINT right_femur_tibia
    {
      OFFSET -0.8047443 -44.0398 -0.1307829
      CHANNELS 3 Zrotation Xrotation Yrotation
      JOINT right_tibia_foot
      {
        OFFSET 3.006224 -47.83518 -5
        CHANNELS 3 Zrotation Xrotation Yrotation
        End Site
        {
          OFFSET 0 -5 15
        }
      }
    }
  }
  JOINT pelvis_left_femur
  {
    OFFSET 10.78128 -3.44521 -0.5502486
    CHANNELS 3 Zrotation Xrotation Yrotation
    JOINT left_femur_tibia
    {
      OFFSET 0.8047443 -44.0398 -0.1307829
      CHANNELS 3 Zrotation Xrotation Yrotation
      JOINT left_tibia_foot
      {
        OFFSET -4.370144 -48.10324 -4.275266
        CHANNELS 3 Zrotation Xrotation Yrotation
        End Site
        {
          OFFSET 0 -5 15
        }
      }
    }
  }
  JOINT pelvis_spine1
  {
    OFFSET 0 6.468898 -3.129235
    CHANNELS 3 Zrotation Xrotation Yrotation
    JOINT spine1
    {
      OFFSET 0 23.15396 4.99043
      CHANNELS 3 Zrotation Xrotation Yrotation
      JOINT spine2
      {
        OFFSET 0 20.79997 -5.064912
        CHANNELS 3 Zrotation Xrotation Yrotation
        JOINT neck
        {
          OFFSET 0 14.38658 9.616178
          CHANNELS 3 Zrotation Xrotation Yrotation
          End Site
          {
            OFFSET 0 20 0
          }
        }
      }
      JOINT right_manubrium
      {
        OFFSET -5.722621 16.35077 3.967754
        CHANNELS 3 Zrotation Xrotation Yrotation
        JOINT right_clavicle
        {
          OFFSET -13.16364 1.694482 -4.693211
          CHANNELS 3 Zrotation Xrotation Yrotation
          JOINT right_humerus
          {
            OFFSET -28.5034 -0.3100689 -2.792744
            CHANNELS 3 Zrotation Xrotation Yrotation
            JOINT right_radius
            {
              OFFSET -25.15693 0.02248979 -1.271978
              CHANNELS 3 Zrotation Xrotation Yrotation
              End Site
              {
                OFFSET -15 0 0
              }
            }
          }
        }
      }
      JOINT left_manubrium
      {
        OFFSET 5.722621 16.35077 3.967754
        CHANNELS 3 Zrotation Xrotation Yrotation
        JOINT left_clavicle
        {
          OFFSET 13.16364 1.694482 -4.693211
          CHANNELS 3 Zrotation Xrotation Yrotation
          JOINT left_humerus
          {
            OFFSET 29.39168 -1.063119 -2.237045
            CHANNELS 3 Zrotation Xrotation Yrotation
            JOINT left_radius
            {
              OFFSET 24.59957 -0.9528479 0.9047498
              CHANNELS 3 Zrotation Xrotation Yrotation
              End Site
              {
                OFFSET 15 -0 -0
              }
            }
          }
        }
      }
    }
  }
}
MOTION
Frames: 19
Frame Time: 0.0416666666667
24.68554 100.9747 275.4872 0.0386895 -1.942066 -2.064474 1.576901 8.86466 8.72625 -0 40.37514 -0 14.64678 -6.868295 -4.516676 0.2251693 -29.20723 -3.586271 -0 28.01413 -0 -12.02993 -10.08266 18.11602 1.249363 -8.277923 10.11688 -2.28162 10.62537 -2.738555 2.284841 20.92582 4.745099 1.481707 -16.90857 6.919404 0.2727854 -22.54076 10.84253 83.417 18.96195 -10.39615 -0 0 25.64559 -25.70907 10.70525 12.53206 4.580373 -14.61857 -2.755704 -92.71485 22.22463 29.01178 0 0 -10.01141 -3.678527 4.200711 19.30183
25.74513 101.5753 282.5621 0.04561101 -1.837129 -1.571733 0.7954061 7.303992 7.676143 -0 48.78801 -0 15.41474 -3.520594 -6.160997 -1.20254 -25.85262 -4.692739 -0 29.4988 -0 -11.70744 -11.70343 17.98438 0.9528102 -8.96331 9.705179 -2.313518 10.61641 -2.738806 2.506467 21.43295 4.612411 1.482494 -16.472 7.048958 0.6406905 -21.65723 10.4946 84.24473 18.80807 -11.29216 -0 0 24.35981 -24.91517 10.45102 11.94353 4.391159 -14.78828 -2.596927 -91.62495 22.63593 27.48705 0 0 -10.68237 -3.492074 4.424215 18.93868
26.75312 102.5684 289.1512 0.05037892 -1.732 -1.072327 0.9784733 2.15142 6.667387 -0 56.63745 -0 15.12762 -2.552783 -7.56461 -2.302808 -21.7705 -5.737642 -0 29.51862 -0 -11.29945 -13.69446 17.72592 0.7786316 -9.550068 9.047314 -2.362623 10.48286 -2.669857 2.578061 21.75928 4.714885 1.396674 -16.19648 7.361446 1.256518 -20.6857 10.49792 85.19701 18.86221 -12.34634 -0 0 22.62069 -23.88521 10.29491 11.18592 4.053968 -15.31691 -2.718732 -90.09626 23.12597 25.11123 0 0 -11.74938 -3.147974 4.701754 18.33624
27.69974 104.0745 295.3417 0.05393593 -1.589378 -0.3956768 1.621676 -6.047772 6.392271 -0 61.12174 -0 14.02011 -3.841058 -7.811945 -3.134359 -17.16609 -6.540982 -0 28.25924 -0 -11.12187 -15.26379 17.35481 0.5055718 -9.816087 7.919316 -2.218872 10.40422 -3.075848 2.565019 22.27426 4.911751 1.262629 -15.82476 7.743864 1.876427 -19.8174 10.4701 86.23692 19.02238 -13.43716 -0 0 20.90872 -22.74562 10.17536 10.40141 3.657701 -16.03358 -3.144711 -88.48481 23.62019 22.05141 0 0 -13.09391 -2.763907 5.034937 17.62872
28.62619 105.4351 300.9823 0.05682701 -1.377959 0.5978477 2.423908 -13.51941 6.227272 -0 61.43537 -0 12.59264 -4.524696 -8.031442 -3.666891 -12.56146 -7.221979 -0 26.13835 -0 -11.13691 -16.49027 16.74649 0.1644105 -9.76761 6.41317 -1.914939 10.22627 -4.006859 2.527874 22.83262 5.168965 1.129615 -15.312 8.174148 1.98999 -19.171 10.26588 87.04903 19.20173 -14.45358 -0 0 19.49997 -21.6684 10.02798 9.724627 3.471949 -16.69897 -3.884305 -87.00566 24.11789 18.582 0 0 -14.66632 -2.44275 5.411662 16.86029
29.5906 106.1548 306.5275 0.05532885 -0.999258 2.381879 3.232482 -19.56243 6.639028 -0 57.89224 -0 10.91707 -4.296792 -8.405513 -4.120809 -8.091845 -7.970031 -0 23.64755 -0 -11.18191 -17.71468 15.87695 -0.3384827 -9.586328 4.569674 -1.428687 9.862886 -5.598626 2.619333 23.192 5.361849 1.074736 -14.8043 8.604355 1.610924 -18.43619 9.823768 87.76019 19.31343 -15.63082 -0 0 18.2235 -20.61106 9.795403 9.056152 3.562814 -17.38348 -5.021242 -85.53279 24.68425 14.80634 0 0 -16.33465 -2.189475 5.82936 16.02031
30.32725 106.2556 312.1991 0.04779282 -0.7407802 3.600787 3.106451 -24.52273 6.60678 -0 50.22651 -0 9.20525 -4.981773 -9.046208 -4.067971 -3.8256 -8.86727 -0 21.3053 -0 -11.19784 -19.11636 14.88096 -0.8110314 -9.493961 3.600652 -0.8000288 9.382584 -6.619014 2.857915 23.55274 5.353394 1.103943 -14.3316 8.896833 1.134445 -17.5293 9.21061 88.26037 19.3705 -17.06732 -0 0 16.69778 -19.56288 9.488476 8.274925 4.01378 -18.31597 -5.45808 -83.71723 25.02595 10.84585 0 0 -18.91197 -1.669042 6.477872 14.76817
31.15935 105.8371 317.9549 0.04243113 -0.6256044 4.140929 2.340723 -27.41788 6.095544 -0 40.03715 -0 7.489517 -5.659013 -9.976232 -4.218577 0.07631791 -9.60077 -0 20.26632 -0 -11.19046 -20.59996 13.97146 -1.158293 -9.035468 2.917966 -0.162871 9.026596 -7.407355 3.138799 23.58628 5.214976 1.146808 -14.12563 9.055228 0.8193228 -16.58143 8.759823 88.61544 19.45177 -18.58013 -0 0 14.78017 -18.40787 9.158498 7.28172 4.428984 -19.23104 -5.771364 -81.92476 25.24052 7.150998 0 0 -21.53368 -1.041804 7.190841 13.37176
31.89194 104.4673 323.5875 0.02319394 -0.2868355 5.757694 1.864595 -31.23747 6.308428 -0 30.14725 -0 5.706264 -6.369629 -11.24081 -4.065202 3.584087 -9.60176 -0 19.74003 -0 -11.15234 -22.10244 12.96315 -1.285244 -8.885461 2.443196 0.3915569 8.654362 -7.848553 3.408139 23.56437 4.91438 1.19556 -13.96295 8.986674 0.6538264 -15.38364 8.314807 89.39503 19.48297 -20.27305 -0 0 12.45498 -16.99664 8.840109 5.963471 4.858602 -20.25895 -5.698735 -80.29593 25.31188 3.44669 0 0 -24.21345 -0.3491558 7.907744 11.9343
32.24139 103.3117 329.4738 0.01293361 -0.1515736 6.405383 1.849303 -34.51909 5.613152 -0 23.80873 -0 4.050867 -7.413499 -12.23788 -3.7684 6.784154 -9.30474 -0 20.34423 -0 -11.26935 -22.95058 12.18521 -1.560119 -8.484994 2.309421 0.8235185 8.357193 -7.885647 3.630466 23.53651 4.567612 1.223993 -13.98229 8.823002 0.7758685 -14.61446 8.14703 89.9837 19.60824 -21.4682 -0 0 10.17407 -15.64906 8.57011 4.60473 5.26097 -21.08118 -5.431964 -78.92674 25.28785 0.6862498 0 0 -26.15246 0.3076665 8.568466 10.67432
32.75807 102.0617 335.61 0.002574121 -0.02884298 6.996154 2.130158 -35.89242 5.23839 -0 19.86618 -0 2.49709 -8.58704 -12.70824 -3.52695 9.432438 -8.795715 -0 22.25978 -0 -11.57289 -22.70667 11.69536 -1.439932 -8.286717 2.136958 1.027456 8.132628 -7.760611 3.68954 23.51832 4.259577 1.178719 -14.06132 8.564047 0.8987921 -14.05543 8.200743 90.45317 19.80644 -22.22139 -0 0 8.134729 -14.35103 8.356306 3.290325 5.406336 -21.69001 -5.122247 -78.21041 25.27994 -1.09532 0 0 -27.27394 0.8717709 9.158063 9.659135
33.14752 101.3053 342.354 -0.01339263 0.1406859 7.816177 3.013611 -34.49148 5.308903 -0 20.81342 -0 1.351988 -8.676901 -13.10933 -3.084861 11.13351 -8.29685 -0 26.04768 -0 -12.1012 -20.83888 11.78791 -1.302212 -8.637684 1.798533 1.112907 8.169944 -7.764711 3.597939 23.56486 3.98807 1.068348 -14.16395 8.216348 1.14284 -13.29743 8.026497 91.20269 19.88183 -22.86515 -0 0 6.472163 -13.33158 8.135565 2.215464 5.434325 -21.78185 -4.659542 -78.28103 25.39331 -1.551824 0 0 -27.28885 1.243318 9.66135 9.031474
33.50641 101.2307 349.7266 -0.02856869 0.2850083 8.516865 4.248421 -32.1922 5.899919 -0 22.74924 -0 0.508732 -8.496641 -12.77463 -3.057443 11.81094 -7.512728 -0 32.86903 -0 -12.7195 -17.21212 12.6861 -1.020756 -9.237357 1.517515 1.049565 8.422931 -7.820657 3.512512 23.77717 3.628008 0.977752 -14.21226 7.755246 1.228404 -12.73191 7.839121 91.70412 19.98544 -22.9462 -0 0 5.520145 -12.57648 7.925619 1.352375 5.347501 -21.31011 -4.115129 -79.14579 25.69957 -0.6621761 0 0 -26.07465 1.352192 10.10184 8.838495
33.86908 101.4074 356.6431 -0.02652388 0.2685472 8.43776 4.859456 -29.36118 6.496645 -0 24.6642 -0 -0.6356613 -9.392089 -12.50509 -2.536666 9.951267 -7.476345 -0 39.47662 -0 -13.08346 -13.71131 13.95919 -0.6775146 -10.06763 1.705968 0.7480988 8.203301 -7.592365 3.774324 23.83613 3.197176 1.059615 -14.51051 7.505113 1.126762 -12.32648 8.033734 92.07099 20.1075 -22.39099 -0 0 5.218084 -12.21644 7.695229 0.7923369 4.957326 -20.66752 -3.821281 -80.51063 26.14737 1.141434 0 0 -23.64055 1.151008 10.48941 9.074054
34.05322 102.3442 363.8222 -0.002233674 0.02545609 7.258767 5.723601 -25.98319 7.41758 -0 25.71787 -0 -1.906554 -11.01011 -11.93168 -1.954509 4.730306 -7.41955 -0 47.95678 -0 -12.2156 -11.71993 15.9689 -0.4417156 -10.85172 2.709536 0.6647687 8.583238 -6.83782 3.984454 24.47611 2.85896 1.149239 -14.6265 7.324348 1.316276 -12.35397 8.445445 91.96924 20.35144 -21.31006 -0 0 5.146081 -12.26641 7.441784 0.4295674 4.327975 -19.62168 -3.629735 -82.26709 26.64057 3.537547 0 0 -20.42323 0.6611642 10.84997 9.59027
34.18436 103.4017 370.1162 0.005833435 -0.07010018 6.795928 6.118091 -21.43008 7.672528 -0 25.22305 -0 -3.02286 -12.7254 -11.24962 -2.563893 -0.8420727 -6.291169 -0 55.16144 -0 -11.56448 -9.896904 17.95478 -0.3234853 -10.92701 3.804162 0.480999 8.820235 -6.163388 4.215123 25.05585 2.495817 1.252837 -14.76305 7.128216 1.319884 -12.57128 8.993401 91.55379 20.668 -19.89184 -0 0 5.098623 -12.29421 7.222024 4.535373e-05 3.793223 -19.02599 -3.682601 -84.04588 27.03846 5.939169 0 0 -17.07487 0.04417454 11.18276 10.2177
34.49715 104.7711 376.2999 0.02084947 -0.2822387 5.770526 6.165987 -16.20808 7.476998 -0 23.21292 -0 -3.833426 -14.03422 -10.31117 -2.320024 -7.585412 -5.843618 -0 58.92603 -0 -10.52555 -8.797005 19.32227 0.008093908 -10.78376 5.186614 0.2884945 8.783741 -5.213703 4.339725 25.57894 2.174619 1.29558 -14.92323 6.896164 1.313079 -13.33938 9.474718 90.81738 20.97774 -17.84296 -0 0 5.636006 -12.65035 6.994299 -0.08632446 3.482058 -18.21406 -3.447951 -86.17931 27.2393 8.914784 0 0 -13.68696 -0.6106619 11.46774 10.87797
34.79831 106.1013 381.6179 0.03561387 -0.5851485 4.310301 5.935134 -10.85234 6.968137 -0 20.08791 -0 -4.464964 -14.99937 -9.120445 -1.936323 -13.99733 -5.34597 -0 58.6549 -0 -9.256548 -8.088468 20.33951 0.3668452 -9.790503 6.470033 -0.1032524 8.555231 -4.024194 4.302226 25.88506 2.021906 1.255068 -15.19194 6.72967 1.032774 -14.64475 10.05481 89.76205 21.27593 -15.21613 -0 0 6.78504 -13.32699 6.767874 0.1548784 3.473206 -17.71765 -3.109144 -88.10102 27.19498 11.82643 0 0 -10.62317 -1.20492 11.71556 11.40749
35.13455 106.8999 386.9966 0.04251452 -0.8946487 2.820603 5.491899 -5.300661 5.962741 -0 16.66982 -0 -5.136448 -15.93327 -7.775826 -0.9880695 -19.52915 -4.523449 -0 52.84482 -0 -7.887156 -8.321214 21.45873 0.5931285 -8.496302 7.345667 -0.5895707 8.426955 -3.065771 4.048818 25.71589 2.108385 1.108968 -15.69591 6.665145 0.4291915 -15.37685 10.22427 89.19096 21.37931 -13.13118 -0 0 7.954959 -14.17502 6.56541 0.5762365 3.824814 -17.18505 -2.59333 -89.79466 26.91306 14.79679 0 0 -7.83735 -1.681071 11.933 11.78603
